<svg xmlns="http://www.w3.org/2000/svg" viewBox="0 0 100 100">
  <circle cx="50" cy="50" r="40" fill="#f5f5f5"/>
  <circle cx="50" cy="50" r="25" fill="#0d0d0d"/>
  <circle cx="50" cy="50" r="8" fill="#f5f5f5"/>
  <g fill="#f5f5f5">
    <rect x="47" y="5" width="6" height="15" rx="3"/>
    <rect x="47" y="80" width="6" height="15" rx="3"/>
    <rect x="5" y="47" width="15" height="6" rx="3"/>
    <rect x="80" y="47" width="15" height="6" rx="3"/>
    <rect x="15" y="15" width="6" height="15" rx="3" transform="rotate(45 18 22.5)"/>
    <rect x="79" y="70" width="6" height="15" rx="3" transform="rotate(45 82 77.5)"/>
    <rect x="15" y="70" width="6" height="15" rx="3" transform="rotate(-45 18 77.5)"/>
    <rect x="79" y="15" width="6" height="15" rx="3" transform="rotate(-45 82 22.5)"/>
  </g>
</svg>
